<svg width="136" height="20" viewBox="0 0 136 20" fill="none" xmlns="http://www.w3.org/2000/svg">
<path d="M135.111 2.49996C134.26 3.06285 133.317 3.49338 132.319 3.77496C131.783 3.19788 131.072 2.78887 130.28 2.60323C129.488 2.41759 128.655 2.46429 127.892 2.737C127.13 3.00972 126.475 3.49529 126.017 4.12805C125.558 4.76082 125.318 5.51024 125.329 6.27496V7.10829C123.766 7.14626 122.218 6.82147 120.821 6.16283C119.425 5.50419 118.224 4.53215 117.325 3.33329C117.325 3.33329 113.768 10.8333 121.772 14.1666C119.94 15.3316 117.759 15.9157 115.547 15.8333C123.551 20 133.333 15.8333 133.333 6.24996C133.332 6.01783 133.308 5.78629 133.262 5.55829C134.169 4.71953 134.81 3.66055 135.111 2.49996Z" fill="white"/>
<path d="M16.0068 1.66663H13.339C12.1597 1.66663 11.0287 2.10561 10.1948 2.88701C9.36096 3.66842 8.89249 4.72822 8.89249 5.83329V8.33329H6.22461V11.6666H8.89249V18.3333H12.4497V11.6666H15.1176L16.0068 8.33329H12.4497V5.83329C12.4497 5.61228 12.5434 5.40032 12.7101 5.24404C12.8769 5.08776 13.1031 4.99996 13.339 4.99996H16.0068V1.66663Z" fill="white"/>
<g clip-path="url(#clip0_1_1014)">
<path d="M91.5562 1.66663H82.6633C80.2076 1.66663 78.2168 3.53211 78.2168 5.83329V14.1666C78.2168 16.4678 80.2076 18.3333 82.6633 18.3333H91.5562C94.0119 18.3333 96.0027 16.4678 96.0027 14.1666V5.83329C96.0027 3.53211 94.0119 1.66663 91.5562 1.66663Z" stroke="white" stroke-width="2" stroke-linecap="round" stroke-linejoin="round"/>
<path d="M90.6667 9.47501C90.7765 10.1685 90.65 10.8769 90.3054 11.4992C89.9608 12.1215 89.4156 12.6262 88.7473 12.9414C88.079 13.2566 87.3216 13.3663 86.5829 13.2549C85.8442 13.1436 85.1618 12.8167 84.6327 12.321C84.1036 11.8252 83.7549 11.1857 83.636 10.4935C83.5171 9.8013 83.6342 9.09158 83.9706 8.46532C84.307 7.83905 84.8455 7.32812 85.5097 7.00521C86.1738 6.68229 86.9297 6.56383 87.6698 6.66667C88.4247 6.77158 89.1236 7.10123 89.6633 7.60693C90.203 8.11263 90.5548 8.76757 90.6667 9.47501Z" stroke="white" stroke-width="2" stroke-linecap="round" stroke-linejoin="round"/>
<path d="M92.001 5.41663H92.0106" stroke="white" stroke-width="2" stroke-linecap="round" stroke-linejoin="round"/>
</g>
<path fill-rule="evenodd" clip-rule="evenodd" d="M57.6396 4.29955C57.9425 4.59218 58.1577 4.95455 58.2633 5.35004C58.5454 6.81562 58.6824 8.3025 58.6724 9.79171C58.678 11.2587 58.5411 12.723 58.2633 14.1667C58.1577 14.5622 57.9425 14.9246 57.6396 15.2172C57.3367 15.5098 56.9567 15.7224 56.5381 15.8334C55.0085 16.2167 48.8902 16.2167 48.8902 16.2167C48.8902 16.2167 42.7718 16.2167 41.2422 15.8334C40.8321 15.7282 40.4579 15.5257 40.1556 15.2454C39.8534 14.9652 39.6335 14.6166 39.517 14.2334C39.2349 12.7678 39.098 11.2809 39.1079 9.79171C39.1001 8.31363 39.2371 6.838 39.517 5.38337C39.6226 4.98788 39.8378 4.62552 40.1407 4.33288C40.4436 4.04024 40.8236 3.82769 41.2422 3.71671C42.7718 3.33337 48.8902 3.33337 48.8902 3.33337C48.8902 3.33337 55.0085 3.33337 56.5381 3.68337C56.9567 3.79436 57.3367 4.00691 57.6396 4.29955ZM52.0031 9.79174L46.8896 12.5167V7.06674L52.0031 9.79174Z" fill="white"/>
<defs>
<clipPath id="clip0_1_1014">
<rect width="21.3431" height="20" fill="white" transform="translate(76.4385)"/>
</clipPath>
</defs>
</svg>
